<svg id="Capa_1" data-name="Capa 1" xmlns="http://www.w3.org/2000/svg" xmlns:xlink="http://www.w3.org/1999/xlink" viewBox="0 0 160 80"><defs><style>.cls-1{fill:url(#Degradado_sin_nombre_51);}.cls-2{fill:url(#Degradado_sin_nombre_51-2);}.cls-3{fill:url(#Degradado_sin_nombre_51-3);}.cls-4{fill:url(#Degradado_sin_nombre_51-5);}.cls-5{fill:url(#Degradado_sin_nombre_51-6);}.cls-6{fill:url(#Degradado_sin_nombre_51-7);}.cls-7{fill:url(#Degradado_sin_nombre_51-8);}.cls-8{fill:url(#Degradado_sin_nombre_51-9);}.cls-9{fill:url(#Degradado_sin_nombre_51-10);}.cls-10{fill:url(#Degradado_sin_nombre_51-11);}.cls-11{fill:url(#Degradado_sin_nombre_51-12);}.cls-12{fill:url(#Degradado_sin_nombre_51-13);}.cls-13{fill:url(#Degradado_sin_nombre_51-14);}.cls-14{fill:url(#Degradado_sin_nombre_51-15);}.cls-15{fill:url(#Degradado_sin_nombre_51-16);}.cls-16{fill:url(#Degradado_sin_nombre_51-17);}.cls-17{fill:url(#Degradado_sin_nombre_51-19);}.cls-18{fill:url(#Degradado_sin_nombre_51-20);}.cls-19{fill:url(#Degradado_sin_nombre_51-21);}.cls-20{fill:url(#Degradado_sin_nombre_51-22);}.cls-21{fill:url(#Degradado_sin_nombre_51-23);}.cls-22{fill:url(#Degradado_sin_nombre_51-24);}.cls-23{fill:url(#Degradado_sin_nombre_51-25);}.cls-24{fill:url(#Degradado_sin_nombre_51-26);}.cls-25{fill:url(#Degradado_sin_nombre_51-27);}.cls-26{fill:url(#Degradado_sin_nombre_51-28);}.cls-27{fill:url(#Degradado_sin_nombre_51-29);}.cls-28{fill:url(#Degradado_sin_nombre_51-30);}.cls-29{fill:url(#Degradado_sin_nombre_51-31);}.cls-30{fill:url(#Degradado_sin_nombre_51-32);}.cls-31{fill:url(#Degradado_sin_nombre_51-33);}.cls-32{fill:url(#Degradado_sin_nombre_51-34);}.cls-33{fill:url(#Degradado_sin_nombre_51-35);}.cls-34{fill:url(#Degradado_sin_nombre_51-36);}.cls-35{fill:url(#Degradado_sin_nombre_51-37);}.cls-36{fill:url(#Degradado_sin_nombre_51-38);}.cls-37{fill:url(#Degradado_sin_nombre_51-39);}.cls-38{fill:url(#Degradado_sin_nombre_51-40);}.cls-39{fill:url(#Degradado_sin_nombre_51-41);}.cls-40{fill:url(#Degradado_sin_nombre_51-42);}.cls-41{fill:url(#Degradado_sin_nombre_51-43);}.cls-42{fill:url(#Degradado_sin_nombre_51-44);}.cls-43{fill:url(#Degradado_sin_nombre_51-45);}.cls-44{fill:url(#Degradado_sin_nombre_51-46);}.cls-45{fill:url(#Degradado_sin_nombre_51-48);}.cls-46{fill:url(#Degradado_sin_nombre_51-49);}.cls-47{fill:url(#Degradado_sin_nombre_51-50);}.cls-48{fill:url(#Degradado_sin_nombre_51-51);}.cls-49{fill:url(#Degradado_sin_nombre_51-52);}.cls-50{fill:url(#Degradado_sin_nombre_51-53);}.cls-51{fill:url(#Degradado_sin_nombre_51-54);}.cls-52{fill:url(#Degradado_sin_nombre_51-55);}.cls-53{fill:url(#Degradado_sin_nombre_51-56);}.cls-54{fill:url(#Degradado_sin_nombre_51-58);}.cls-55{fill:url(#Degradado_sin_nombre_51-59);}.cls-56{fill:url(#Degradado_sin_nombre_51-60);}.cls-57{fill:url(#Degradado_sin_nombre_51-61);}.cls-58{fill:url(#Degradado_sin_nombre_51-62);}.cls-59{fill:url(#Degradado_sin_nombre_51-64);}.cls-60{fill:url(#Degradado_sin_nombre_51-65);}.cls-61{fill:url(#Degradado_sin_nombre_51-66);}.cls-62{fill:url(#Degradado_sin_nombre_51-67);}.cls-63{fill:url(#Degradado_sin_nombre_51-68);}.cls-64{fill:url(#Degradado_sin_nombre_51-69);}.cls-65{fill:url(#Degradado_sin_nombre_51-70);}.cls-66{fill:url(#Degradado_sin_nombre_51-71);}.cls-67{fill:url(#Degradado_sin_nombre_51-72);}.cls-68{fill:url(#Degradado_sin_nombre_51-73);}.cls-69{fill:url(#Degradado_sin_nombre_51-74);}.cls-70{fill:url(#Degradado_sin_nombre_51-75);}.cls-71{fill:url(#Degradado_sin_nombre_51-76);}.cls-72{fill:url(#Degradado_sin_nombre_51-77);}.cls-73{fill:url(#Degradado_sin_nombre_51-78);}.cls-74{fill:url(#Degradado_sin_nombre_51-79);}.cls-75{fill:url(#Degradado_sin_nombre_51-80);}.cls-76{fill:url(#Degradado_sin_nombre_51-81);}.cls-77{fill:url(#Degradado_sin_nombre_51-82);}.cls-78{fill:url(#Degradado_sin_nombre_51-83);}.cls-79{fill:url(#Degradado_sin_nombre_51-84);}.cls-80{fill:url(#Degradado_sin_nombre_51-85);}.cls-81{fill:url(#Degradado_sin_nombre_51-86);}.cls-82{fill:url(#Degradado_sin_nombre_51-87);}.cls-83{fill:url(#Degradado_sin_nombre_51-88);}.cls-84{fill:url(#Degradado_sin_nombre_51-89);}.cls-85{fill:url(#Degradado_sin_nombre_51-90);}.cls-86{fill:url(#Degradado_sin_nombre_51-91);}.cls-87{fill:url(#Degradado_sin_nombre_51-92);}.cls-88{fill:url(#Degradado_sin_nombre_51-93);}.cls-89{fill:url(#Degradado_sin_nombre_51-94);}.cls-90{fill:url(#Degradado_sin_nombre_51-95);}.cls-91{fill:url(#Degradado_sin_nombre_51-96);}.cls-92{fill:url(#Degradado_sin_nombre_51-97);}.cls-93{fill:url(#Degradado_sin_nombre_51-98);}.cls-94{fill:url(#Degradado_sin_nombre_51-99);}.cls-95{fill:url(#Degradado_sin_nombre_51-100);}.cls-96{fill:url(#Degradado_sin_nombre_51-101);}.cls-97{fill:url(#Degradado_sin_nombre_51-102);}.cls-98{fill:url(#Degradado_sin_nombre_51-103);}.cls-99{fill:url(#Degradado_sin_nombre_51-104);}.cls-100{fill:url(#Degradado_sin_nombre_51-105);}.cls-101{fill:url(#Degradado_sin_nombre_51-106);}.cls-102{fill:url(#Degradado_sin_nombre_51-108);}.cls-103{fill:url(#Degradado_sin_nombre_51-109);}.cls-104{fill:url(#Degradado_sin_nombre_51-111);}.cls-105{fill:url(#Degradado_sin_nombre_51-112);}.cls-106{fill:url(#Degradado_sin_nombre_51-113);}.cls-107{fill:url(#Degradado_sin_nombre_51-114);}.cls-108{fill:url(#Degradado_sin_nombre_51-115);}.cls-109{fill:url(#Degradado_sin_nombre_51-118);}.cls-110{fill:url(#Degradado_sin_nombre_51-119);}.cls-111{fill:url(#Degradado_sin_nombre_51-120);}.cls-112{fill:url(#Degradado_sin_nombre_51-121);}.cls-113{fill:url(#Degradado_sin_nombre_51-122);}.cls-114{fill:url(#Degradado_sin_nombre_51-123);}.cls-115{fill:url(#Degradado_sin_nombre_51-124);}.cls-116{fill:url(#Degradado_sin_nombre_51-125);}.cls-117{fill:url(#Degradado_sin_nombre_51-126);}.cls-118{fill:url(#Degradado_sin_nombre_51-127);}.cls-119{fill:url(#Degradado_sin_nombre_51-128);}.cls-120{fill:url(#Degradado_sin_nombre_51-130);}.cls-121{fill:url(#Degradado_sin_nombre_51-132);}.cls-122{fill:url(#Degradado_sin_nombre_51-133);}.cls-123{fill:url(#Degradado_sin_nombre_51-135);}.cls-124{fill:url(#Degradado_sin_nombre_51-136);}.cls-125{fill:url(#Degradado_sin_nombre_51-137);}.cls-126{fill:url(#Degradado_sin_nombre_51-138);}.cls-127{fill:url(#Degradado_sin_nombre_51-139);}.cls-128{fill:url(#Degradado_sin_nombre_51-140);}.cls-129{fill:url(#Degradado_sin_nombre_51-141);}.cls-130{fill:#fff;}</style><linearGradient id="Degradado_sin_nombre_51" x1="24.9" y1="-10.91" x2="24.9" y2="95.34" gradientUnits="userSpaceOnUse"><stop offset="0" stop-color="#00476f"/><stop offset="1" stop-color="#036092"/></linearGradient><linearGradient id="Degradado_sin_nombre_51-2" x1="33.79" y1="-7.65" x2="33.79" y2="83.96" xlink:href="#Degradado_sin_nombre_51"/><linearGradient id="Degradado_sin_nombre_51-3" x1="48.09" y1="-7.65" x2="48.09" y2="83.96" xlink:href="#Degradado_sin_nombre_51"/><linearGradient id="Degradado_sin_nombre_51-5" x1="75.45" y1="-7.65" x2="75.45" y2="83.96" xlink:href="#Degradado_sin_nombre_51"/><linearGradient id="Degradado_sin_nombre_51-6" x1="58.72" y1="-7.65" x2="58.72" y2="83.96" xlink:href="#Degradado_sin_nombre_51"/><linearGradient id="Degradado_sin_nombre_51-7" x1="29.41" y1="-7.65" x2="29.41" y2="83.96" xlink:href="#Degradado_sin_nombre_51"/><linearGradient id="Degradado_sin_nombre_51-8" x1="34.06" y1="-7.65" x2="34.06" y2="83.96" xlink:href="#Degradado_sin_nombre_51"/><linearGradient id="Degradado_sin_nombre_51-9" x1="6.07" y1="-7.65" x2="6.07" y2="83.96" xlink:href="#Degradado_sin_nombre_51"/><linearGradient id="Degradado_sin_nombre_51-10" x1="8.62" y1="-7.65" x2="8.62" y2="83.96" xlink:href="#Degradado_sin_nombre_51"/><linearGradient id="Degradado_sin_nombre_51-11" x1="9.7" y1="-7.65" x2="9.7" y2="83.96" xlink:href="#Degradado_sin_nombre_51"/><linearGradient id="Degradado_sin_nombre_51-12" x1="6.66" y1="-7.65" x2="6.66" y2="83.96" xlink:href="#Degradado_sin_nombre_51"/><linearGradient id="Degradado_sin_nombre_51-13" x1="25.99" y1="-7.65" x2="25.99" y2="83.96" xlink:href="#Degradado_sin_nombre_51"/><linearGradient id="Degradado_sin_nombre_51-14" x1="52.25" y1="-7.65" x2="52.25" y2="83.96" xlink:href="#Degradado_sin_nombre_51"/><linearGradient id="Degradado_sin_nombre_51-15" x1="36.55" y1="-7.65" x2="36.55" y2="83.96" xlink:href="#Degradado_sin_nombre_51"/><linearGradient id="Degradado_sin_nombre_51-16" x1="44.06" y1="-7.65" x2="44.06" y2="83.96" xlink:href="#Degradado_sin_nombre_51"/><linearGradient id="Degradado_sin_nombre_51-17" x1="113.67" y1="-6.59" x2="113.67" y2="85.02" xlink:href="#Degradado_sin_nombre_51"/><linearGradient id="Degradado_sin_nombre_51-19" x1="47.84" y1="-7.65" x2="47.84" y2="83.96" xlink:href="#Degradado_sin_nombre_51"/><linearGradient id="Degradado_sin_nombre_51-20" x1="21.77" y1="-7.65" x2="21.77" y2="83.96" xlink:href="#Degradado_sin_nombre_51"/><linearGradient id="Degradado_sin_nombre_51-21" x1="28.84" y1="-7.65" x2="28.84" y2="83.96" xlink:href="#Degradado_sin_nombre_51"/><linearGradient id="Degradado_sin_nombre_51-22" x1="27.92" y1="-7.65" x2="27.92" y2="83.96" xlink:href="#Degradado_sin_nombre_51"/><linearGradient id="Degradado_sin_nombre_51-23" x1="55.02" y1="-7.65" x2="55.02" y2="83.96" xlink:href="#Degradado_sin_nombre_51"/><linearGradient id="Degradado_sin_nombre_51-24" x1="73.22" y1="-7.65" x2="73.22" y2="83.96" xlink:href="#Degradado_sin_nombre_51"/><linearGradient id="Degradado_sin_nombre_51-25" x1="75.09" y1="-7.65" x2="75.09" y2="83.96" xlink:href="#Degradado_sin_nombre_51"/><linearGradient id="Degradado_sin_nombre_51-26" x1="108.89" y1="-7.65" x2="108.89" y2="83.96" xlink:href="#Degradado_sin_nombre_51"/><linearGradient id="Degradado_sin_nombre_51-27" x1="103.9" y1="-7.65" x2="103.9" y2="83.96" xlink:href="#Degradado_sin_nombre_51"/><linearGradient id="Degradado_sin_nombre_51-28" x1="125.87" y1="-7.65" x2="125.87" y2="83.96" xlink:href="#Degradado_sin_nombre_51"/><linearGradient id="Degradado_sin_nombre_51-29" x1="87.5" y1="-7.65" x2="87.5" y2="83.96" xlink:href="#Degradado_sin_nombre_51"/><linearGradient id="Degradado_sin_nombre_51-30" x1="93.32" y1="-7.65" x2="93.32" y2="83.96" xlink:href="#Degradado_sin_nombre_51"/><linearGradient id="Degradado_sin_nombre_51-31" x1="54.9" y1="-7.65" x2="54.9" y2="83.96" xlink:href="#Degradado_sin_nombre_51"/><linearGradient id="Degradado_sin_nombre_51-32" x1="67.73" y1="-7.65" x2="67.73" y2="83.96" xlink:href="#Degradado_sin_nombre_51"/><linearGradient id="Degradado_sin_nombre_51-33" x1="67.87" y1="-7.65" x2="67.87" y2="83.96" xlink:href="#Degradado_sin_nombre_51"/><linearGradient id="Degradado_sin_nombre_51-34" x1="113.67" y1="-7.65" x2="113.67" y2="83.96" xlink:href="#Degradado_sin_nombre_51"/><linearGradient id="Degradado_sin_nombre_51-35" x1="157.69" y1="-8.16" x2="157.69" y2="84.18" xlink:href="#Degradado_sin_nombre_51"/><linearGradient id="Degradado_sin_nombre_51-36" x1="128.3" y1="-7.65" x2="128.3" y2="83.96" xlink:href="#Degradado_sin_nombre_51"/><linearGradient id="Degradado_sin_nombre_51-37" x1="148.5" y1="-7.65" x2="148.5" y2="83.96" xlink:href="#Degradado_sin_nombre_51"/><linearGradient id="Degradado_sin_nombre_51-38" x1="136.06" y1="-7.65" x2="136.06" y2="83.96" xlink:href="#Degradado_sin_nombre_51"/><linearGradient id="Degradado_sin_nombre_51-39" x1="138.51" y1="-7.65" x2="138.51" y2="83.96" xlink:href="#Degradado_sin_nombre_51"/><linearGradient id="Degradado_sin_nombre_51-40" x1="140.04" y1="-7.65" x2="140.04" y2="83.96" xlink:href="#Degradado_sin_nombre_51"/><linearGradient id="Degradado_sin_nombre_51-41" x1="146.88" y1="-7.65" x2="146.88" y2="83.96" xlink:href="#Degradado_sin_nombre_51"/><linearGradient id="Degradado_sin_nombre_51-42" x1="149.98" y1="-7.65" x2="149.98" y2="83.96" xlink:href="#Degradado_sin_nombre_51"/><linearGradient id="Degradado_sin_nombre_51-43" x1="156.17" y1="-7.65" x2="156.17" y2="83.96" xlink:href="#Degradado_sin_nombre_51"/><linearGradient id="Degradado_sin_nombre_51-44" x1="150.86" y1="-7.65" x2="150.86" y2="83.96" xlink:href="#Degradado_sin_nombre_51"/><linearGradient id="Degradado_sin_nombre_51-45" x1="143.31" y1="-7.65" x2="143.31" y2="83.96" xlink:href="#Degradado_sin_nombre_51"/><linearGradient id="Degradado_sin_nombre_51-46" x1="152.97" y1="-7.65" x2="152.97" y2="83.96" xlink:href="#Degradado_sin_nombre_51"/><linearGradient id="Degradado_sin_nombre_51-48" x1="138.33" y1="-7.65" x2="138.33" y2="83.96" xlink:href="#Degradado_sin_nombre_51"/><linearGradient id="Degradado_sin_nombre_51-49" x1="142.66" y1="-7.65" x2="142.66" y2="83.96" xlink:href="#Degradado_sin_nombre_51"/><linearGradient id="Degradado_sin_nombre_51-50" x1="127.28" y1="-7.65" x2="127.28" y2="83.96" xlink:href="#Degradado_sin_nombre_51"/><linearGradient id="Degradado_sin_nombre_51-51" x1="148.9" y1="-7.65" x2="148.9" y2="83.96" xlink:href="#Degradado_sin_nombre_51"/><linearGradient id="Degradado_sin_nombre_51-52" x1="141.89" y1="-7.65" x2="141.89" y2="83.96" xlink:href="#Degradado_sin_nombre_51"/><linearGradient id="Degradado_sin_nombre_51-53" x1="134.64" y1="-7.65" x2="134.64" y2="83.96" xlink:href="#Degradado_sin_nombre_51"/><linearGradient id="Degradado_sin_nombre_51-54" x1="147.6" y1="-7.65" x2="147.6" y2="83.96" xlink:href="#Degradado_sin_nombre_51"/><linearGradient id="Degradado_sin_nombre_51-55" x1="157.66" y1="-7.65" x2="157.66" y2="83.96" xlink:href="#Degradado_sin_nombre_51"/><linearGradient id="Degradado_sin_nombre_51-56" x1="132.73" y1="-7.65" x2="132.73" y2="83.96" xlink:href="#Degradado_sin_nombre_51"/><linearGradient id="Degradado_sin_nombre_51-58" x1="108.38" y1="-7.65" x2="108.38" y2="83.96" xlink:href="#Degradado_sin_nombre_51"/><linearGradient id="Degradado_sin_nombre_51-59" x1="111.32" y1="-7.65" x2="111.32" y2="83.96" xlink:href="#Degradado_sin_nombre_51"/><linearGradient id="Degradado_sin_nombre_51-60" x1="97.08" y1="-7.65" x2="97.08" y2="83.96" xlink:href="#Degradado_sin_nombre_51"/><linearGradient id="Degradado_sin_nombre_51-61" x1="54.71" y1="-7.65" x2="54.71" y2="83.96" xlink:href="#Degradado_sin_nombre_51"/><linearGradient id="Degradado_sin_nombre_51-62" x1="54.96" y1="-7.65" x2="54.96" y2="83.96" xlink:href="#Degradado_sin_nombre_51"/><linearGradient id="Degradado_sin_nombre_51-64" x1="77.18" y1="-7.65" x2="77.18" y2="83.96" xlink:href="#Degradado_sin_nombre_51"/><linearGradient id="Degradado_sin_nombre_51-65" x1="74.11" y1="-7.65" x2="74.11" y2="83.96" xlink:href="#Degradado_sin_nombre_51"/><linearGradient id="Degradado_sin_nombre_51-66" x1="80.02" y1="-7.65" x2="80.02" y2="83.96" xlink:href="#Degradado_sin_nombre_51"/><linearGradient id="Degradado_sin_nombre_51-67" x1="113.19" y1="-7.65" x2="113.19" y2="83.96" xlink:href="#Degradado_sin_nombre_51"/><linearGradient id="Degradado_sin_nombre_51-68" x1="46.44" y1="-7.65" x2="46.44" y2="83.96" xlink:href="#Degradado_sin_nombre_51"/><linearGradient id="Degradado_sin_nombre_51-69" x1="48.93" y1="-7.65" x2="48.93" y2="83.96" xlink:href="#Degradado_sin_nombre_51"/><linearGradient id="Degradado_sin_nombre_51-70" x1="42.24" y1="-7.65" x2="42.24" y2="83.96" xlink:href="#Degradado_sin_nombre_51"/><linearGradient id="Degradado_sin_nombre_51-71" x1="45.68" y1="-7.65" x2="45.68" y2="83.96" xlink:href="#Degradado_sin_nombre_51"/><linearGradient id="Degradado_sin_nombre_51-72" x1="50.96" y1="-7.65" x2="50.96" y2="83.96" xlink:href="#Degradado_sin_nombre_51"/><linearGradient id="Degradado_sin_nombre_51-73" x1="25.35" y1="-7.65" x2="25.35" y2="83.96" xlink:href="#Degradado_sin_nombre_51"/><linearGradient id="Degradado_sin_nombre_51-74" x1="10.89" y1="-7.65" x2="10.89" y2="83.96" xlink:href="#Degradado_sin_nombre_51"/><linearGradient id="Degradado_sin_nombre_51-75" x1="50.9" y1="-7.65" x2="50.9" y2="83.96" xlink:href="#Degradado_sin_nombre_51"/><linearGradient id="Degradado_sin_nombre_51-76" x1="53.77" y1="-7.65" x2="53.77" y2="83.96" xlink:href="#Degradado_sin_nombre_51"/><linearGradient id="Degradado_sin_nombre_51-77" x1="72.19" y1="-7.65" x2="72.19" y2="83.96" xlink:href="#Degradado_sin_nombre_51"/><linearGradient id="Degradado_sin_nombre_51-78" x1="101.4" y1="-7.65" x2="101.4" y2="83.96" xlink:href="#Degradado_sin_nombre_51"/><linearGradient id="Degradado_sin_nombre_51-79" x1="109.85" y1="-7.65" x2="109.85" y2="83.96" xlink:href="#Degradado_sin_nombre_51"/><linearGradient id="Degradado_sin_nombre_51-80" x1="68.64" y1="-7.65" x2="68.64" y2="83.96" xlink:href="#Degradado_sin_nombre_51"/><linearGradient id="Degradado_sin_nombre_51-81" x1="85.83" y1="-7.65" x2="85.83" y2="83.96" xlink:href="#Degradado_sin_nombre_51"/><linearGradient id="Degradado_sin_nombre_51-82" x1="69.74" y1="-7.65" x2="69.74" y2="83.96" xlink:href="#Degradado_sin_nombre_51"/><linearGradient id="Degradado_sin_nombre_51-83" x1="111.23" y1="-7.65" x2="111.23" y2="83.96" xlink:href="#Degradado_sin_nombre_51"/><linearGradient id="Degradado_sin_nombre_51-84" x1="155.58" y1="-7.65" x2="155.58" y2="83.96" xlink:href="#Degradado_sin_nombre_51"/><linearGradient id="Degradado_sin_nombre_51-85" x1="78.87" y1="-7.65" x2="78.87" y2="83.96" xlink:href="#Degradado_sin_nombre_51"/><linearGradient id="Degradado_sin_nombre_51-86" x1="3.86" y1="-7.65" x2="3.86" y2="83.96" xlink:href="#Degradado_sin_nombre_51"/><linearGradient id="Degradado_sin_nombre_51-87" x1="30.07" y1="-7.65" x2="30.07" y2="83.96" xlink:href="#Degradado_sin_nombre_51"/><linearGradient id="Degradado_sin_nombre_51-88" x1="11.27" y1="-7.65" x2="11.27" y2="83.96" xlink:href="#Degradado_sin_nombre_51"/><linearGradient id="Degradado_sin_nombre_51-89" x1="24.9" y1="-7.65" x2="24.9" y2="83.96" xlink:href="#Degradado_sin_nombre_51"/><linearGradient id="Degradado_sin_nombre_51-90" x1="32.4" y1="-7.65" x2="32.4" y2="83.96" xlink:href="#Degradado_sin_nombre_51"/><linearGradient id="Degradado_sin_nombre_51-91" x1="8.47" y1="-7.65" x2="8.47" y2="83.96" xlink:href="#Degradado_sin_nombre_51"/><linearGradient id="Degradado_sin_nombre_51-92" x1="27.34" y1="-7.65" x2="27.34" y2="83.96" xlink:href="#Degradado_sin_nombre_51"/><linearGradient id="Degradado_sin_nombre_51-93" x1="50.49" y1="-7.65" x2="50.49" y2="83.96" xlink:href="#Degradado_sin_nombre_51"/><linearGradient id="Degradado_sin_nombre_51-94" x1="52.64" y1="-7.65" x2="52.64" y2="83.96" xlink:href="#Degradado_sin_nombre_51"/><linearGradient id="Degradado_sin_nombre_51-95" x1="55.27" y1="-7.65" x2="55.27" y2="83.96" xlink:href="#Degradado_sin_nombre_51"/><linearGradient id="Degradado_sin_nombre_51-96" x1="70.89" y1="-7.65" x2="70.89" y2="83.96" xlink:href="#Degradado_sin_nombre_51"/><linearGradient id="Degradado_sin_nombre_51-97" x1="72.18" y1="-7.65" x2="72.18" y2="83.96" xlink:href="#Degradado_sin_nombre_51"/><linearGradient id="Degradado_sin_nombre_51-98" x1="91.3" y1="-7.65" x2="91.3" y2="83.96" xlink:href="#Degradado_sin_nombre_51"/><linearGradient id="Degradado_sin_nombre_51-99" x1="82.71" y1="-7.65" x2="82.71" y2="83.96" xlink:href="#Degradado_sin_nombre_51"/><linearGradient id="Degradado_sin_nombre_51-100" x1="114.43" y1="-7.65" x2="114.43" y2="83.96" xlink:href="#Degradado_sin_nombre_51"/><linearGradient id="Degradado_sin_nombre_51-101" x1="106.95" y1="-7.65" x2="106.95" y2="83.96" xlink:href="#Degradado_sin_nombre_51"/><linearGradient id="Degradado_sin_nombre_51-102" x1="71.3" y1="-7.65" x2="71.3" y2="83.96" xlink:href="#Degradado_sin_nombre_51"/><linearGradient id="Degradado_sin_nombre_51-103" x1="67.25" y1="-7.65" x2="67.25" y2="83.96" xlink:href="#Degradado_sin_nombre_51"/><linearGradient id="Degradado_sin_nombre_51-104" x1="34.35" y1="-7.65" x2="34.35" y2="83.96" xlink:href="#Degradado_sin_nombre_51"/><linearGradient id="Degradado_sin_nombre_51-105" x1="11.07" y1="-7.65" x2="11.07" y2="83.96" xlink:href="#Degradado_sin_nombre_51"/><linearGradient id="Degradado_sin_nombre_51-106" x1="9.15" y1="-7.65" x2="9.15" y2="83.96" xlink:href="#Degradado_sin_nombre_51"/><linearGradient id="Degradado_sin_nombre_51-108" x1="60.78" y1="-7.65" x2="60.78" y2="83.96" xlink:href="#Degradado_sin_nombre_51"/><linearGradient id="Degradado_sin_nombre_51-109" x1="120.05" y1="-7.65" x2="120.05" y2="83.96" xlink:href="#Degradado_sin_nombre_51"/><linearGradient id="Degradado_sin_nombre_51-111" x1="132.42" y1="-7.65" x2="132.42" y2="83.96" xlink:href="#Degradado_sin_nombre_51"/><linearGradient id="Degradado_sin_nombre_51-112" x1="148.94" y1="-7.65" x2="148.94" y2="83.96" xlink:href="#Degradado_sin_nombre_51"/><linearGradient id="Degradado_sin_nombre_51-113" x1="130.15" y1="-7.65" x2="130.15" y2="83.96" xlink:href="#Degradado_sin_nombre_51"/><linearGradient id="Degradado_sin_nombre_51-114" x1="70.85" y1="-7.65" x2="70.85" y2="83.96" xlink:href="#Degradado_sin_nombre_51"/><linearGradient id="Degradado_sin_nombre_51-115" x1="59.48" y1="-7.65" x2="59.48" y2="83.96" xlink:href="#Degradado_sin_nombre_51"/><linearGradient id="Degradado_sin_nombre_51-118" x1="108.38" y1="-7.65" x2="108.38" y2="83.96" xlink:href="#Degradado_sin_nombre_51"/><linearGradient id="Degradado_sin_nombre_51-119" x1="94.12" y1="-7.65" x2="94.12" y2="83.96" xlink:href="#Degradado_sin_nombre_51"/><linearGradient id="Degradado_sin_nombre_51-120" x1="136.88" y1="-8.5" x2="136.88" y2="86.85" xlink:href="#Degradado_sin_nombre_51"/><linearGradient id="Degradado_sin_nombre_51-121" x1="107.91" y1="-7.65" x2="107.91" y2="83.96" xlink:href="#Degradado_sin_nombre_51"/><linearGradient id="Degradado_sin_nombre_51-122" x1="125.25" y1="-7.65" x2="125.25" y2="83.96" xlink:href="#Degradado_sin_nombre_51"/><linearGradient id="Degradado_sin_nombre_51-123" x1="148.6" y1="-9.3" x2="148.6" y2="85.75" xlink:href="#Degradado_sin_nombre_51"/><linearGradient id="Degradado_sin_nombre_51-124" x1="83.21" y1="-6.95" x2="83.21" y2="84.66" xlink:href="#Degradado_sin_nombre_51"/><linearGradient id="Degradado_sin_nombre_51-125" x1="24.58" y1="-7.65" x2="24.58" y2="83.96" xlink:href="#Degradado_sin_nombre_51"/><linearGradient id="Degradado_sin_nombre_51-126" x1="31.17" y1="-7.55" x2="31.17" y2="84.05" xlink:href="#Degradado_sin_nombre_51"/><linearGradient id="Degradado_sin_nombre_51-127" x1="47.69" y1="-7.65" x2="47.69" y2="83.96" xlink:href="#Degradado_sin_nombre_51"/><linearGradient id="Degradado_sin_nombre_51-128" x1="52" y1="-7.65" x2="52" y2="83.96" xlink:href="#Degradado_sin_nombre_51"/><linearGradient id="Degradado_sin_nombre_51-130" x1="67.89" y1="-7.65" x2="67.89" y2="83.96" xlink:href="#Degradado_sin_nombre_51"/><linearGradient id="Degradado_sin_nombre_51-132" x1="29.09" y1="-7.65" x2="29.09" y2="83.96" xlink:href="#Degradado_sin_nombre_51"/><linearGradient id="Degradado_sin_nombre_51-133" x1="104.58" y1="-7.65" x2="104.58" y2="83.96" xlink:href="#Degradado_sin_nombre_51"/><linearGradient id="Degradado_sin_nombre_51-135" x1="114.75" y1="-7.65" x2="114.75" y2="83.96" xlink:href="#Degradado_sin_nombre_51"/><linearGradient id="Degradado_sin_nombre_51-136" x1="136.66" y1="-7.65" x2="136.66" y2="83.96" xlink:href="#Degradado_sin_nombre_51"/><linearGradient id="Degradado_sin_nombre_51-137" x1="153.82" y1="-7.65" x2="153.82" y2="83.96" xlink:href="#Degradado_sin_nombre_51"/><linearGradient id="Degradado_sin_nombre_51-138" x1="139.72" y1="-7.65" x2="139.72" y2="83.96" xlink:href="#Degradado_sin_nombre_51"/><linearGradient id="Degradado_sin_nombre_51-139" x1="149.25" y1="-7.65" x2="149.25" y2="83.96" xlink:href="#Degradado_sin_nombre_51"/><linearGradient id="Degradado_sin_nombre_51-140" x1="157.05" y1="-7.65" x2="157.05" y2="83.96" xlink:href="#Degradado_sin_nombre_51"/><linearGradient id="Degradado_sin_nombre_51-141" x1="11.52" y1="-10.96" x2="11.52" y2="89.41" xlink:href="#Degradado_sin_nombre_51"/></defs><title>u.rise-logo</title><polygon class="cls-1" points="19.38 3.19 19.38 9.56 24.9 12.75 30.43 9.56 30.43 3.19 24.9 0 19.38 3.19"/><polygon class="cls-2" points="27.69 14.95 27.69 21.99 33.78 25.51 39.88 21.99 39.88 14.95 33.78 11.44 27.69 14.95"/><polygon class="cls-3" points="42.44 6.28 42.44 12.8 48.09 16.06 53.74 12.8 53.74 6.28 48.09 3.02 42.44 6.28"/><polygon class="cls-3" points="39.6 25.99 39.6 35.8 48.09 40.7 56.58 35.8 56.58 25.99 48.09 21.09 39.6 25.99"/><polygon class="cls-4" points="65.08 20.87 65.08 32.84 75.45 38.83 85.83 32.84 85.83 20.87 75.45 14.88 65.08 20.87"/><polygon class="cls-5" points="54.32 15.6 54.32 20.68 58.72 23.22 63.12 20.68 63.12 15.6 58.72 13.06 54.32 15.6"/><polygon class="cls-6" points="25.29 28.7 25.29 33.46 29.41 35.84 33.54 33.46 33.54 28.7 29.41 26.32 25.29 28.7"/><polygon class="cls-7" points="29.49 47.33 29.49 52.62 34.06 55.26 38.64 52.62 38.64 47.33 34.06 44.69 29.49 47.33"/><polygon class="cls-8" points="0 39.17 0 46.17 6.07 49.67 12.13 46.17 12.13 39.17 6.07 35.66 0 39.17"/><polygon class="cls-9" points="5.23 53.16 5.23 57.07 8.62 59.03 12.01 57.07 12.01 53.16 8.62 51.2 5.23 53.16"/><polygon class="cls-10" points="6.99 62.24 6.99 65.37 9.7 66.94 12.41 65.37 12.41 62.24 9.7 60.68 6.99 62.24"/><polygon class="cls-11" points="4.63 69.09 4.63 71.44 6.66 72.61 8.69 71.44 8.69 69.09 6.66 67.92 4.63 69.09"/><polygon class="cls-12" points="23.69 65.61 23.69 68.27 25.99 69.6 28.3 68.27 28.3 65.61 25.99 64.28 23.69 65.61"/><polygon class="cls-13" points="48.65 43.85 48.65 48.02 52.25 50.1 55.86 48.02 55.86 43.85 52.25 41.77 48.65 43.85"/><polygon class="cls-14" points="34.88 33.46 34.88 35.39 36.55 36.36 38.22 35.39 38.22 33.46 36.55 32.49 34.88 33.46"/><polygon class="cls-15" points="42.29 17.77 42.29 19.81 44.06 20.83 45.83 19.81 45.83 17.77 44.06 16.75 42.29 17.77"/><polygon class="cls-16" points="111.91 18.83 111.91 20.87 113.67 21.89 115.44 20.87 115.44 18.83 113.67 17.8 111.91 18.83"/><polygon class="cls-12" points="23.61 51.26 23.61 54.01 25.99 55.38 28.37 54.01 28.37 51.26 25.99 49.89 23.61 51.26"/><polygon class="cls-17" points="44.98 60.73 44.98 64.04 47.84 65.69 50.7 64.04 50.7 60.73 47.84 59.08 44.98 60.73"/><polygon class="cls-18" points="20.37 33.3 20.37 34.91 21.77 35.71 23.16 34.91 23.16 33.3 21.77 32.49 20.37 33.3"/><polygon class="cls-19" points="27.92 45.11 27.92 46.18 28.84 46.71 29.77 46.18 29.77 45.11 28.84 44.57 27.92 45.11"/><polygon class="cls-20" points="27.14 48.8 27.14 49.7 27.92 50.16 28.7 49.7 28.7 48.8 27.92 48.35 27.14 48.8"/><polygon class="cls-21" points="53.88 51.08 53.88 52.39 55.02 53.04 56.15 52.39 56.15 51.08 55.02 50.42 53.88 51.08"/><polygon class="cls-22" points="71.86 63.96 71.86 65.53 73.22 66.31 74.57 65.53 74.57 63.96 73.22 63.18 71.86 63.96"/><polygon class="cls-23" points="73.41 58.11 73.41 60.04 75.09 61.01 76.77 60.04 76.77 58.11 75.09 57.14 73.41 58.11"/><polygon class="cls-24" points="106.25 61.54 106.25 64.59 108.89 66.11 111.54 64.59 111.54 61.54 108.89 60.01 106.25 61.54"/><polygon class="cls-25" points="101.9 56.17 101.9 58.47 103.9 59.63 105.89 58.47 105.89 56.17 103.9 55.02 101.9 56.17"/><polygon class="cls-26" points="124.5 33.57 124.5 35.15 125.87 35.94 127.23 35.15 127.23 33.57 125.87 32.78 124.5 33.57"/><polygon class="cls-27" points="85.5 71.47 85.5 73.78 87.5 74.93 89.5 73.78 89.5 71.47 87.5 70.32 85.5 71.47"/><polygon class="cls-28" points="90.59 67.77 90.59 70.93 93.32 72.5 96.06 70.93 96.06 67.77 93.32 66.19 90.59 67.77"/><polygon class="cls-29" points="53.76 39.1 53.76 40.41 54.9 41.06 56.03 40.41 56.03 39.1 54.9 38.45 53.76 39.1"/><polygon class="cls-30" points="66.08 36.78 66.08 38.68 67.73 39.63 69.38 38.68 69.38 36.78 67.73 35.82 66.08 36.78"/><polygon class="cls-31" points="66.73 50.57 66.73 51.88 67.87 52.53 69 51.88 69 50.57 67.87 49.91 66.73 50.57"/><polygon class="cls-32" points="112.54 60.29 112.54 61.6 113.67 62.26 114.81 61.6 114.81 60.29 113.67 59.64 112.54 60.29"/><polygon class="cls-33" points="155.38 52.43 155.38 55.1 157.69 56.43 160 55.1 160 52.43 157.69 51.09 155.38 52.43"/><polygon class="cls-34" points="126.01 65.61 126.01 68.26 128.3 69.59 130.6 68.26 130.6 65.61 128.3 64.29 126.01 65.61"/><polygon class="cls-35" points="147.36 37.86 147.36 39.16 148.5 39.82 149.63 39.16 149.63 37.86 148.5 37.2 147.36 37.86"/><polygon class="cls-36" points="134.92 52.62 134.92 53.93 136.06 54.58 137.19 53.93 137.19 52.62 136.06 51.97 134.92 52.62"/><polygon class="cls-37" points="137.38 33.11 137.38 34.42 138.51 35.07 139.65 34.42 139.65 33.11 138.51 32.45 137.38 33.11"/><polygon class="cls-38" points="138.9 64.74 138.9 66.05 140.03 66.7 141.17 66.05 141.17 64.74 140.03 64.09 138.9 64.74"/><polygon class="cls-39" points="145.75 70.56 145.75 71.86 146.88 72.52 148.02 71.86 148.02 70.56 146.88 69.9 145.75 70.56"/><polygon class="cls-40" points="148.74 73.99 148.74 75.42 149.98 76.14 151.22 75.42 151.22 73.99 149.98 73.28 148.74 73.99"/><polygon class="cls-41" points="155.14 73.62 155.14 74.81 156.17 75.4 157.21 74.81 157.21 73.62 156.17 73.02 155.14 73.62"/><polygon class="cls-42" points="149.73 69.86 149.73 71.16 150.86 71.82 152 71.16 152 69.86 150.86 69.2 149.73 69.86"/><polygon class="cls-43" points="142.01 67.51 142.01 69.01 143.31 69.75 144.61 69.01 144.61 67.51 143.31 66.76 142.01 67.51"/><polygon class="cls-44" points="151.67 54.82 151.67 56.31 152.97 57.06 154.27 56.31 154.27 54.82 152.97 54.07 151.67 54.82"/><polygon class="cls-44" points="151.67 65.14 151.67 66.64 152.97 67.38 154.27 66.64 154.27 65.14 152.97 64.39 151.67 65.14"/><polygon class="cls-45" points="137.12 68.95 137.12 70.34 138.33 71.04 139.54 70.34 139.54 68.95 138.33 68.25 137.12 68.95"/><polygon class="cls-46" points="141.45 71.7 141.45 73.1 142.66 73.8 143.87 73.1 143.87 71.7 142.66 71 141.45 71.7"/><polygon class="cls-47" points="125.77 71.27 125.77 73.01 127.28 73.89 128.8 73.01 128.8 71.27 127.28 70.39 125.77 71.27"/><polygon class="cls-48" points="146.43 57.65 146.43 60.5 148.9 61.93 151.37 60.5 151.37 57.65 148.9 56.22 146.43 57.65"/><polygon class="cls-49" points="140.66 52.44 140.66 53.86 141.89 54.57 143.12 53.86 143.12 52.44 141.89 51.73 140.66 52.44"/><polygon class="cls-50" points="132.82 65.22 132.82 67.24 134.64 68.25 136.46 67.24 136.46 65.22 134.64 64.21 132.82 65.22"/><polygon class="cls-51" points="145.78 64.62 145.78 66.64 147.6 67.65 149.42 66.64 149.42 64.62 147.6 63.61 145.78 64.62"/><polygon class="cls-52" points="155.85 68.14 155.85 70.16 157.66 71.17 159.48 70.16 159.48 68.14 157.66 67.13 155.85 68.14"/><polygon class="cls-53" points="130.91 70.69 130.91 72.71 132.73 73.72 134.55 72.71 134.55 70.69 132.73 69.68 130.91 70.69"/><polygon class="cls-41" points="153.58 59.07 153.58 62.06 156.17 63.56 158.76 62.06 158.76 59.07 156.17 57.58 153.58 59.07"/><polygon class="cls-54" points="107.14 68.23 107.14 69.67 108.39 70.39 109.64 69.67 109.64 68.23 108.39 67.5 107.14 68.23"/><polygon class="cls-55" points="110.32 71.83 110.32 72.98 111.32 73.55 112.32 72.98 112.32 71.83 111.32 71.25 110.32 71.83"/><polygon class="cls-56" points="95.95 54.55 95.95 55.86 97.08 56.52 98.22 55.86 98.22 54.55 97.08 53.9 95.95 54.55"/><polygon class="cls-57" points="53.36 63.96 53.36 65.53 54.71 66.31 56.07 65.53 56.07 63.96 54.71 63.18 53.36 63.96"/><polygon class="cls-58" points="53.93 68.75 53.93 69.94 54.96 70.54 55.99 69.94 55.99 68.75 54.96 68.16 53.93 68.75"/><polygon class="cls-31" points="66.83 67.16 66.83 68.35 67.87 68.95 68.9 68.35 68.9 67.16 67.87 66.57 66.83 67.16"/><polygon class="cls-59" points="76.15 71.54 76.15 72.73 77.18 73.33 78.21 72.73 78.21 71.54 77.18 70.95 76.15 71.54"/><polygon class="cls-60" points="72.91 68.45 72.91 69.84 74.11 70.54 75.31 69.84 75.31 68.45 74.11 67.76 72.91 68.45"/><polygon class="cls-61" points="78.28 67.94 78.28 69.95 80.02 70.96 81.76 69.95 81.76 67.94 80.02 66.94 78.28 67.94"/><polygon class="cls-62" points="111.61 66.84 111.61 68.67 113.19 69.58 114.77 68.67 114.77 66.84 113.19 65.93 111.61 66.84"/><polygon class="cls-63" points="45.36 73.03 45.36 74.27 46.44 74.89 47.52 74.27 47.52 73.03 46.44 72.4 45.36 73.03"/><polygon class="cls-64" points="47.91 56.9 47.91 58.09 48.93 58.68 49.96 58.09 49.96 56.9 48.93 56.3 47.91 56.9"/><polygon class="cls-65" points="40.49 63.94 40.49 65.96 42.24 66.97 43.99 65.96 43.99 63.94 42.24 62.92 40.49 63.94"/><polygon class="cls-66" points="43.93 68.14 43.93 70.16 45.68 71.17 47.43 70.16 47.43 68.14 45.68 67.13 43.93 68.14"/><polygon class="cls-67" points="48.8 66.75 48.8 69.25 50.96 70.5 53.13 69.25 53.13 66.75 50.96 65.5 48.8 66.75"/><polygon class="cls-68" points="23.63 45.72 23.63 47.71 25.35 48.7 27.08 47.71 27.08 45.72 25.35 44.72 23.63 45.72"/><polygon class="cls-69" points="9.7 49.26 9.7 50.63 10.89 51.31 12.07 50.63 12.07 49.26 10.89 48.58 9.7 49.26"/><polygon class="cls-70" points="49.07 52.79 49.07 54.91 50.9 55.97 52.74 54.91 52.74 52.79 50.9 51.73 49.07 52.79"/><polygon class="cls-71" points="51.65 58.32 51.65 60.77 53.77 62 55.89 60.77 55.89 58.32 53.77 57.09 51.65 58.32"/><polygon class="cls-72" points="70.27 49.56 70.27 51.78 72.19 52.89 74.11 51.78 74.11 49.56 72.19 48.46 70.27 49.56"/><polygon class="cls-73" points="98.5 48.81 98.5 52.16 101.4 53.84 104.31 52.16 104.31 48.81 101.4 47.13 98.5 48.81"/><polygon class="cls-74" points="104.92 42.13 104.92 47.81 109.85 50.66 114.77 47.81 114.77 42.13 109.85 39.29 104.92 42.13"/><polygon class="cls-75" points="66.72 61.62 66.72 63.83 68.64 64.94 70.56 63.83 70.56 61.62 68.64 60.51 66.72 61.62"/><polygon class="cls-76" points="83 64.55 83 67.81 85.83 69.44 88.65 67.81 88.65 64.55 85.83 62.92 83 64.55"/><polygon class="cls-77" points="66.91 54.61 66.91 57.88 69.74 59.51 72.56 57.88 72.56 54.61 69.74 52.98 66.91 54.61"/><polygon class="cls-78" points="107.78 53.31 107.78 57.29 111.23 59.29 114.68 57.29 114.68 53.31 111.23 51.31 107.78 53.31"/><polygon class="cls-79" points="151.16 37.9 151.16 43.01 155.58 45.56 160 43.01 160 37.9 155.58 35.35 151.16 37.9"/><polygon class="cls-80" points="76.16 61.74 76.16 64.87 78.87 66.44 81.58 64.87 81.58 61.74 78.87 60.18 76.16 61.74"/><polygon class="cls-81" points="2.13 60.26 2.13 62.25 3.86 63.25 5.58 62.25 5.58 60.26 3.86 59.27 2.13 60.26"/><polygon class="cls-82" points="28.34 70.65 28.34 72.64 30.07 73.64 31.8 72.64 31.8 70.65 30.07 69.65 28.34 70.65"/><polygon class="cls-83" points="9.91 71.21 9.91 72.77 11.27 73.55 12.62 72.77 12.62 71.21 11.27 70.42 9.91 71.21"/><polygon class="cls-84" points="23.54 71.3 23.54 72.87 24.9 73.65 26.25 72.87 26.25 71.3 24.9 70.52 23.54 71.3"/><polygon class="cls-85" points="31.05 74.71 31.05 76.27 32.4 77.06 33.76 76.27 33.76 74.71 32.4 73.92 31.05 74.71"/><polygon class="cls-86" points="7.71 74.09 7.71 74.97 8.47 75.41 9.23 74.97 9.23 74.09 8.47 73.65 7.71 74.09"/><polygon class="cls-87" points="26.58 74.5 26.58 75.38 27.34 75.82 28.1 75.38 28.1 74.5 27.34 74.06 26.58 74.5"/><polygon class="cls-88" points="49.73 73.77 49.73 74.65 50.49 75.09 51.25 74.65 51.25 73.77 50.49 73.33 49.73 73.77"/><polygon class="cls-89" points="52.12 71.47 52.12 72.06 52.64 72.36 53.16 72.06 53.16 71.47 52.64 71.17 52.12 71.47"/><polygon class="cls-90" points="54.42 54.88 54.42 55.85 55.27 56.34 56.12 55.85 56.12 54.88 55.27 54.39 54.42 54.88"/><polygon class="cls-91" points="70.36 67.45 70.36 68.06 70.89 68.37 71.42 68.06 71.42 67.45 70.89 67.15 70.36 67.45"/><polygon class="cls-92" points="71.65 60.81 71.65 61.42 72.18 61.73 72.71 61.42 72.71 60.81 72.18 60.51 71.65 60.81"/><polygon class="cls-93" points="90.53 73.62 90.53 74.5 91.3 74.94 92.06 74.5 92.06 73.62 91.3 73.18 90.53 73.62"/><polygon class="cls-94" points="82.18 71.83 82.18 72.44 82.71 72.75 83.24 72.44 83.24 71.83 82.71 71.53 82.18 71.83"/><polygon class="cls-95" points="113.9 71.46 113.9 72.07 114.43 72.38 114.96 72.07 114.96 71.46 114.43 71.15 113.9 71.46"/><polygon class="cls-96" points="106.42 72.88 106.42 73.49 106.95 73.79 107.48 73.49 107.48 72.88 106.95 72.57 106.42 72.88"/><polygon class="cls-97" points="70.77 72.32 70.77 72.93 71.3 73.24 71.83 72.93 71.83 72.32 71.3 72.01 70.77 72.32"/><polygon class="cls-98" points="66.72 71.46 66.72 72.07 67.25 72.38 67.78 72.07 67.78 71.46 67.25 71.15 66.72 71.46"/><polygon class="cls-99" points="33.8 78.15 33.8 78.79 34.35 79.11 34.9 78.79 34.9 78.15 34.35 77.83 33.8 78.15"/><polygon class="cls-100" points="10.8 76.45 10.8 76.76 11.07 76.92 11.34 76.76 11.34 76.45 11.07 76.29 10.8 76.45"/><polygon class="cls-101" points="8.87 78.63 8.87 78.95 9.15 79.11 9.42 78.95 9.42 78.63 9.15 78.47 8.87 78.63"/><polygon class="cls-81" points="3.58 75.98 3.58 76.29 3.86 76.45 4.13 76.29 4.13 75.98 3.86 75.82 3.58 75.98"/><polygon class="cls-102" points="58.45 32.08 58.45 34.78 60.78 36.13 63.12 34.78 63.12 32.08 60.78 30.73 58.45 32.08"/><polygon class="cls-103" points="117.71 31.95 117.71 34.65 120.05 35.99 122.39 34.65 122.39 31.95 120.05 30.6 117.71 31.95"/><polygon class="cls-37" points="135.68 47.07 135.68 50.34 138.51 51.98 141.35 50.34 141.35 47.07 138.51 45.43 135.68 47.07"/><polygon class="cls-104" points="129.27 30.64 129.27 34.27 132.42 36.08 135.56 34.27 135.56 30.64 132.42 28.82 129.27 30.64"/><polygon class="cls-105" points="144.19 46.64 144.19 52.11 148.94 54.85 153.68 52.11 153.68 46.64 148.94 43.9 144.19 46.64"/><polygon class="cls-106" points="126.11 47.77 126.11 52.43 130.15 54.77 134.19 52.43 134.19 47.77 130.15 45.43 126.11 47.77"/><polygon class="cls-107" points="67.02 41.77 67.02 46.2 70.85 48.42 74.69 46.2 74.69 41.77 70.85 39.56 67.02 41.77"/><polygon class="cls-108" points="57.93 25.96 57.93 27.75 59.48 28.64 61.02 27.75 61.02 25.96 59.48 25.07 57.93 25.96"/><polygon class="cls-28" points="89.57 28.34 89.57 32.68 93.32 34.85 97.08 32.68 97.08 28.34 93.32 26.17 89.57 28.34"/><polygon class="cls-93" points="86.56 46.81 86.56 52.28 91.3 55.02 96.03 52.28 96.03 46.81 91.3 44.08 86.56 46.81"/><polygon class="cls-109" points="102.32 7.82 102.32 14.81 108.38 18.31 114.43 14.81 114.43 7.82 108.38 4.33 102.32 7.82"/><polygon class="cls-110" points="88.57 14.64 88.57 21.05 94.12 24.25 99.67 21.05 99.67 14.64 94.12 11.44 88.57 14.64"/><polygon class="cls-111" points="131.11 3.33 131.11 10 136.88 13.34 142.66 10 142.66 3.33 136.88 0 131.11 3.33"/><polygon class="cls-112" points="100.45 25.35 100.45 33.96 107.91 38.27 115.37 33.96 115.37 25.35 107.91 21.04 100.45 25.35"/><polygon class="cls-113" points="117.79 16.18 117.79 24.79 125.25 29.1 132.71 24.79 132.71 16.18 125.25 11.87 117.79 16.18"/><polygon class="cls-114" points="137.19 16.51 137.19 29.68 148.6 36.27 160 29.68 160 16.51 148.6 9.93 137.19 16.51"/><polygon class="cls-115" points="76.6 3.81 76.6 11.45 83.21 15.26 89.81 11.45 89.81 3.81 83.21 0 76.6 3.81"/><polygon class="cls-116" points="24.31 76.76 24.31 77.08 24.58 77.24 24.85 77.08 24.85 76.76 24.58 76.6 24.31 76.76"/><polygon class="cls-117" points="30.9 79.53 30.9 79.84 31.17 80 31.45 79.84 31.45 79.53 31.17 79.37 30.9 79.53"/><polygon class="cls-118" points="47.41 76.45 47.41 76.76 47.69 76.92 47.96 76.76 47.96 76.45 47.69 76.29 47.41 76.45"/><polygon class="cls-119" points="51.73 77.68 51.73 77.99 52 78.15 52.28 77.99 52.28 77.68 52 77.52 51.73 77.68"/><polygon class="cls-58" points="54.69 74.37 54.69 74.68 54.96 74.84 55.23 74.68 55.23 74.37 54.96 74.21 54.69 74.37"/><polygon class="cls-120" points="67.62 74.93 67.62 75.25 67.89 75.41 68.16 75.25 68.16 74.93 67.89 74.77 67.62 74.93"/><polygon class="cls-22" points="72.94 76.13 72.94 76.45 73.22 76.6 73.49 76.45 73.49 76.13 73.22 75.97 72.94 76.13"/><polygon class="cls-121" points="28.7 54.58 28.7 55.03 29.09 55.25 29.49 55.03 29.49 54.58 29.09 54.35 28.7 54.58"/><polygon class="cls-122" points="104.31 77.56 104.31 77.88 104.58 78.03 104.86 77.88 104.86 77.56 104.58 77.4 104.31 77.56"/><polygon class="cls-54" points="108.11 75.81 108.11 76.13 108.39 76.29 108.66 76.13 108.66 75.81 108.39 75.66 108.11 75.81"/><polygon class="cls-123" points="114.47 76.93 114.47 77.25 114.75 77.4 115.02 77.25 115.02 76.93 114.75 76.77 114.47 76.93"/><polygon class="cls-124" points="136.13 72.88 136.13 73.49 136.66 73.79 137.19 73.49 137.19 72.88 136.66 72.57 136.13 72.88"/><polygon class="cls-125" points="153.29 76.47 153.29 77.08 153.82 77.38 154.35 77.08 154.35 76.47 153.82 76.16 153.29 76.47"/><polygon class="cls-126" points="139.45 73.43 139.45 73.75 139.72 73.91 139.99 73.75 139.99 73.43 139.72 73.28 139.45 73.43"/><polygon class="cls-127" points="148.98 78.19 148.98 78.51 149.25 78.67 149.53 78.51 149.53 78.19 149.25 78.03 148.98 78.19"/><polygon class="cls-128" points="156.78 79.27 156.78 79.58 157.05 79.74 157.32 79.58 157.32 79.27 157.05 79.11 156.78 79.27"/><polygon class="cls-129" points="0 16.6 0 29.89 11.52 36.55 23.04 29.89 23.04 16.6 11.52 9.95 0 16.6"/><path class="cls-130" d="M5.59,24.13v-8h2v7.89c0,3.1,1.42,4.5,3.94,4.5s4-1.4,4-4.5V16.16h1.94v8c0,4.06-2.22,6.2-5.92,6.2S5.59,28.19,5.59,24.13Z"/></svg>